<?xml version="1.0" encoding="UTF-8"?>
<svg version="1.1" xmlns="http://www.w3.org/2000/svg" width="1920" height="1080">
<path d="M0 0 C633.6 0 1267.2 0 1920 0 C1920 356.4 1920 712.8 1920 1080 C1286.4 1080 652.8 1080 0 1080 C0 723.6 0 367.2 0 0 Z " fill="#F0E0D5" transform="translate(0,0)"/>
<path d="M0 0 C16.09845576 11.88444822 22.62099965 30.45571794 30.328125 48.17285156 C32.91789274 54.11710288 35.58875633 60.02500434 38.25 65.9375 C39.33381784 68.35395118 40.41723623 70.7705768 41.5 73.1875 C41.7779541 73.80777069 42.0559082 74.42804138 42.34228516 75.06710815 C48.17165768 88.07676812 53.98999655 101.09137192 59.81054688 114.10498047 C61.96200056 118.915146 64.11375879 123.72517525 66.265625 128.53515625 C66.61544434 129.31709351 66.96526367 130.09903076 67.32568359 130.90466309 C68.38378369 133.26977779 69.4418905 135.6348895 70.5 138 C74.43034578 146.78519856 78.36066756 155.57040777 82.29016113 164.35598755 C89.5364621 180.55727769 96.78533801 196.75738539 104.04785156 212.95141602 C108.90646715 223.78703131 113.75513836 234.6270859 118.60351562 245.46728516 C123.23109509 255.81358294 127.86206398 266.15833963 132.5 276.5 C137.87496648 288.4850894 143.2400755 300.47456968 148.60250854 312.465271 C152.20132058 320.51237987 155.80028281 328.55940823 159.41015625 336.6015625 C163.85276185 346.49967687 168.29406812 356.39809191 172.69140625 366.31640625 C173.01005142 367.03504349 173.32869659 367.75368073 173.65699768 368.49409485 C173.9799028 369.2223497 174.30280792 369.95060455 174.63549805 370.70092773 C181.27873347 385.68303456 187.98420005 400.63531153 194.75 415.5625 C200.38110939 427.98644839 205.99092475 440.41803446 211.51586914 452.88964844 C215.35865136 461.56386738 219.22602158 470.22687159 223.10186768 478.88635254 C224.18362174 481.30383294 225.26450999 483.72169884 226.34521484 486.13964844 C229.7233069 493.69523345 233.10824999 501.24753655 236.51753235 508.78910828 C238.06080383 512.20414132 239.60008864 515.62096459 241.1390686 519.03793335 C241.86720568 520.65164417 242.59726045 522.26449137 243.32943726 523.87637329 C252.35724326 543.75391634 260.85015824 563.24288038 253 585 C252.7215625 585.83917969 252.443125 586.67835938 252.15625 587.54296875 C246.33865301 603.71689143 234.1534728 614.69533357 219 622 C205.56316216 627.97005937 188.77710156 628.13954285 175 623 C144.52352866 610.86547856 135.63558247 579.84562275 123.40187073 552.18511963 C119.0199641 542.27870582 114.59002756 532.39469548 110.1366272 522.52023315 C102.3549188 505.26592184 94.62621973 487.98885693 86.96157837 470.68222046 C84.89808454 466.02328947 82.82899572 461.36688479 80.7565155 456.71194458 C79.34074615 453.5302491 77.92811215 450.34716822 76.51620483 447.16375732 C75.84332863 445.64826528 75.16921214 444.13332327 74.49380493 442.61895752 C73.56535057 440.53653922 72.64149065 438.45214253 71.71875 436.3671875 C71.19216797 435.18237793 70.66558594 433.99756836 70.12304688 432.77685547 C69 430 69 430 69 428 C-0.3 428 -69.6 428 -141 428 C-141.33 429.98 -141.66 431.96 -142 434 C-142.95495674 435.69287785 -143.9590934 437.35857037 -145 439 C-145.74263581 440.6790027 -146.48294522 442.35935256 -147.1875 444.0546875 C-148.07348738 446.17594574 -149.00113984 448.27550495 -149.9375 450.375 C-150.44603516 451.51582031 -150.44603516 451.51582031 -150.96484375 452.6796875 C-151.30644531 453.44539063 -151.64804687 454.21109375 -152 455 C-152.66690743 456.49989297 -153.33357583 457.99989225 -154 459.5 C-154.33128906 460.24507812 -154.66257812 460.99015625 -155.00390625 461.7578125 C-155.65852223 463.23134023 -156.31219677 464.70528662 -156.96484375 466.1796875 C-159.16453428 471.14445087 -161.40001375 476.091922 -163.65625 481.03125 C-164.68375653 483.30132256 -165.69676351 485.57605459 -166.703125 487.85546875 C-168.54613117 492.0082499 -170.43208308 496.14076737 -172.328125 500.26953125 C-172.63609512 500.94028687 -172.94406525 501.61104248 -173.2613678 502.30212402 C-173.57996262 502.9960022 -173.89855743 503.68988037 -174.22680664 504.40478516 C-180.2537395 517.53148292 -186.22241142 530.68131784 -192.07141113 543.88833618 C-193.06254896 546.1251105 -194.05581192 548.3609286 -195.04980469 550.59643555 C-195.71160167 552.08511786 -196.37338554 553.57380601 -197.03515625 555.0625 C-197.52440079 556.16299431 -197.52440079 556.16299431 -198.02352905 557.28572083 C-200.04357999 561.83384396 -202.04888385 566.38819281 -204.04624939 570.94631958 C-205.37039312 573.95952744 -206.70694358 576.96712462 -208.0463562 579.97357178 C-208.6703191 581.38123718 -209.28912692 582.79120178 -209.90213013 584.20367432 C-216.8083662 600.10388235 -227.27534038 613.98629418 -243.55859375 621.12109375 C-260.55074735 627.70103408 -276.61683104 627.29277868 -293.45703125 620.6328125 C-309.15641406 613.00143174 -318.99587309 600.00392163 -325.1484375 584.015625 C-326.92172418 578.12636097 -327.30827741 572.23787468 -327.4375 566.125 C-327.46005859 565.43043701 -327.48261719 564.73587402 -327.50585938 564.02026367 C-327.43867949 549.31626729 -319.97682751 535.70414518 -313.9375 522.6875 C-313.07149248 520.80083418 -312.20667499 518.91362169 -311.34301758 517.02587891 C-309.65159069 513.32918418 -307.9568501 509.6340418 -306.25976562 505.93994141 C-303.51053966 499.94363743 -300.83048054 493.91894602 -298.1875 487.875 C-297.77153564 486.9255249 -297.35557129 485.9760498 -296.92700195 484.99780273 C-295.61555531 481.99959663 -294.3074462 478.99995267 -293 476 C-290.710034 470.74925721 -288.41828552 465.49929379 -286.125 460.25 C-285.83052979 459.57584045 -285.53605957 458.90168091 -285.23266602 458.20709229 C-278.91961826 443.76052418 -272.47796994 429.3732735 -266 415 C-265.58943359 414.08895508 -265.17886719 413.17791016 -264.75585938 412.23925781 C-264.37751953 411.39975586 -263.99917969 410.56025391 -263.609375 409.6953125 C-262.88536715 408.08856398 -262.1614074 406.48179378 -261.4375 404.875 C-261.0861499 404.09535889 -260.7347998 403.31571777 -260.37280273 402.51245117 C-257.30923643 395.70583438 -254.27835661 388.88484189 -251.25 382.0625 C-246.58890916 371.56210224 -241.90206098 361.07355539 -237.19921875 350.59179688 C-236.64452389 349.35547205 -236.08983651 348.11914388 -235.53515625 346.8828125 C-235.25407013 346.25630798 -234.97298401 345.62980347 -234.68338013 344.98431396 C-231.03294586 336.84638361 -227.39171937 328.70433294 -223.75 320.5625 C-223.02937931 318.95149692 -222.30875756 317.34049432 -221.58813477 315.72949219 C-219.39197661 310.8197121 -217.19597424 305.90986235 -215 301 C-212.08347756 294.47910215 -209.16686504 287.95824461 -206.25 281.4375 C-205.89329224 280.64006378 -205.53658447 279.84262756 -205.16906738 279.02102661 C-200.09931741 267.68782262 -195.02358199 256.35732257 -189.94335938 245.02880859 C-185.54040126 235.2090176 -181.14430486 225.38616578 -176.75 215.5625 C-176.21542175 214.36743332 -176.21542175 214.36743332 -175.67004395 213.14822388 C-173.11320466 207.4322199 -170.55657937 201.71612023 -168 196 C-165.08347756 189.47910215 -162.16686504 182.95824461 -159.25 176.4375 C-158.89329224 175.64006378 -158.53658447 174.84262756 -158.16906738 174.02102661 C-153.10226302 162.69440739 -148.0296355 151.37041909 -142.95214844 140.04858398 C-138.46214805 130.03504906 -133.98056243 120.01776066 -129.5 110 C-124.42079863 98.64397832 -119.33919055 87.2890488 -114.25 75.9375 C-113.4775293 74.21382202 -113.4775293 74.21382202 -112.68945312 72.45532227 C-110.25522202 67.02473071 -107.81870514 61.59518833 -105.37591553 56.16844177 C-104.19926718 53.55401003 -103.02383842 50.9390308 -101.84851074 48.32400513 C-101.03333359 46.51161101 -100.21641089 44.7000023 -99.39941406 42.88842773 C-96.97139139 37.48526069 -94.61122774 32.07398171 -92.390625 26.58203125 C-85.95454273 11.0320151 -74.92913335 0.52169346 -60 -7 C-59.13375 -7.43699219 -58.2675 -7.87398437 -57.375 -8.32421875 C-38.51478809 -16.13695188 -16.19407721 -11.166795 0 0 Z " fill="#D97AB1" transform="translate(985,225)"/>
<path d="M0 0 C26.2779151 -0.07013864 52.55581613 -0.123012 78.83380604 -0.15543652 C91.03563889 -0.17089318 103.23741351 -0.1919598 115.43920898 -0.22631836 C126.07658528 -0.25625741 136.7139194 -0.27558373 147.35133666 -0.28226548 C152.98167658 -0.28617009 158.61189585 -0.29532156 164.24219704 -0.31719017 C169.54695024 -0.33762644 174.85153365 -0.34381937 180.15632248 -0.33932304 C182.0980681 -0.34014505 184.03981969 -0.34606795 185.98153114 -0.35761642 C204.59900015 -0.46286823 220.7776579 2.6472049 234.75 15.9375 C235.72500767 16.90389037 236.69905205 17.87125415 237.671875 18.83984375 C239.7150328 21.22672266 239.7150328 21.22672266 242 21 C243.83449946 25.08281014 245.66766312 29.16621893 247.5 33.25 C247.78832703 33.89256744 248.07665405 34.53513489 248.37371826 35.19717407 C251.84992532 42.946501 255.31571001 50.70030208 258.7578125 58.46484375 C259.22948853 59.52873573 259.22948853 59.52873573 259.71069336 60.61412048 C260.18696167 61.68842064 260.18696167 61.68842064 260.67285156 62.78442383 C267.30270512 77.73910765 273.99679062 92.66308976 280.75 107.5625 C286.38110939 119.98644839 291.99092475 132.41803446 297.51586914 144.88964844 C301.35865136 153.56386738 305.22602158 162.22687159 309.10186768 170.88635254 C310.18362174 173.30383294 311.26450999 175.72169884 312.34521484 178.13964844 C315.7233069 185.69523345 319.10824999 193.24753655 322.51753235 200.78910828 C324.06080383 204.20414132 325.60008864 207.62096459 327.1390686 211.03793335 C327.86720568 212.65164417 328.59726045 214.26449137 329.32943726 215.87637329 C338.35724326 235.75391634 346.85015824 255.24288038 339 277 C338.7215625 277.83917969 338.443125 278.67835938 338.15625 279.54296875 C332.33865301 295.71689143 320.1534728 306.69533357 305 314 C291.56316216 319.97005937 274.77710156 320.13954285 261 315 C230.52352866 302.86547856 221.63558247 271.84562275 209.40187073 244.18511963 C205.0199641 234.27870582 200.59002756 224.39469548 196.1366272 214.52023315 C188.3549188 197.26592184 180.62621973 179.98885693 172.96157837 162.68222046 C170.89808454 158.02328947 168.82899572 153.36688479 166.7565155 148.71194458 C165.34074615 145.5302491 163.92811215 142.34716822 162.51620483 139.16375732 C161.84332863 137.64826528 161.16921214 136.13332327 160.49380493 134.61895752 C159.56535057 132.53653922 158.64149065 130.45214253 157.71875 128.3671875 C157.19216797 127.18237793 156.66558594 125.99756836 156.12304688 124.77685547 C155 122 155 122 155 120 C153.10443611 120.00333092 153.10443611 120.00333092 151.170578 120.00672913 C134.84289312 120.03444781 118.51520487 120.05201001 102.1875 120.0625 C100.87575932 120.06335602 99.56401863 120.06421204 98.21252823 120.06509399 C60.5349835 120.08678846 22.86282588 119.95629691 -14.8125 119.5 C-15.80050724 119.48804218 -16.78851448 119.47608437 -17.80646133 119.46376419 C-29.53780327 119.32076017 -41.26897446 119.16696198 -53 119 C-52.34 116.36 -51.68 113.72 -51 111 C-50.34 111 -49.68 111 -49 111 C-48.938125 110.05125 -48.87625 109.1025 -48.8125 108.125 C-48.09602693 102.98325212 -45.69825425 98.38781532 -43 94 C-42.01 93.505 -42.01 93.505 -41 93 C-40.39397335 90.63804589 -40.39397335 90.63804589 -40 88 C-39.67516582 86.66457061 -39.3449145 85.33038449 -39 84 C-38.34 84 -37.68 84 -37 84 C-36.6596875 82.865625 -36.319375 81.73125 -35.96875 80.5625 C-33.3823453 72.8153719 -29.84942775 65.43879507 -26.5 58 C-25.4144168 55.57757958 -24.33019274 53.15455396 -23.24607849 50.73147583 C-22.52323335 49.11608194 -21.79989698 47.50090778 -21.07606506 45.88595581 C-18.94311082 41.12383359 -16.83236181 36.35307707 -14.74609375 31.5703125 C-14.26527344 30.46816406 -13.78445313 29.36601563 -13.2890625 28.23046875 C-12.42821406 26.25250773 -11.56986733 24.27345468 -10.71484375 22.29296875 C-8.40573256 16.99872368 -5.9387324 11.80936038 -3.34204102 6.65185547 C-3.01957649 6.00925278 -2.69711197 5.36665009 -2.36487579 4.70457458 C-1.57753318 3.13590622 -0.78890011 1.56788566 0 0 Z " fill="#FC8795" transform="translate(899,533)"/>
<path d="M0 0 C0.99 0 1.98 0 3 0 C9.47642503 13.31265146 15.50844257 26.81147552 21.5 40.34667969 C26.62308358 51.91764667 31.79756597 63.46450816 37 75 C43.03204673 88.37904904 49.02489393 101.77459654 54.97143555 115.19186401 C58.86002314 123.96450687 62.77063389 132.72662099 66.71875 141.47265625 C67.11779541 142.3570639 67.51684082 143.24147156 67.92797852 144.15267944 C69.85230006 148.41645543 71.77934406 152.67896669 73.7109375 156.93945312 C77.34498207 164.9696558 80.92558055 173.02313549 84.40625 181.12109375 C84.90433167 182.25769188 84.90433167 182.25769188 85.41247559 183.41725159 C91.2401756 197.12423409 92.08947979 211.89424353 87 226 C86.7215625 226.83917969 86.443125 227.67835938 86.15625 228.54296875 C80.33865301 244.71689143 68.1534728 255.69533357 53 263 C39.56316216 268.97005937 22.77710156 269.13954285 9 264 C-21.47647134 251.86547856 -30.36441753 220.84562275 -42.59812927 193.18511963 C-47.35283906 182.4358895 -52.16738557 171.71439782 -57 161 C-63.45108891 146.69258659 -69.85849181 132.36665598 -76.20703125 118.01342773 C-79.46007087 110.66607869 -82.74945929 103.33822254 -86.109375 96.0390625 C-86.77061402 94.59713529 -87.43174882 93.15516028 -88.09277344 91.71313477 C-89.33059169 89.0134213 -90.58023388 86.31963745 -91.83691406 83.62866211 C-92.6601416 81.83440796 -92.6601416 81.83440796 -93.5 80.00390625 C-93.9846875 78.96049072 -94.469375 77.9170752 -94.96875 76.84204102 C-95.99959312 74.00112132 -96.21997443 71.99130856 -96 69 C-88.32849723 68.41901373 -80.6841935 67.94950925 -72.9921875 67.7890625 C-72.3256012 67.7747821 -71.65901489 67.76050171 -70.972229 67.74578857 C-68.25775071 67.68876275 -65.54347639 67.63361315 -62.82861328 67.59863281 C-50.21254126 67.42378641 -38.73969063 66.46072364 -28.0234375 59.3046875 C-26 58 -26 58 -23 57 C-21.32932867 55.00334402 -19.66247014 53.00348966 -18 51 C-17.34 51 -16.68 51 -16 51 C-15.731875 50.360625 -15.46375 49.72125 -15.1875 49.0625 C-14 47 -14 47 -11 46 C-10.41653693 44.15262014 -10.41653693 44.15262014 -10 42 C-9.24994324 40.54035716 -8.45486143 39.1032939 -7.625 37.6875 C-0.53098828 25.13498359 0.31413564 14.06629605 0 0 Z " fill="#FEA974" transform="translate(1151,584)"/>
<path d="M0 0 C0.66 0 1.32 0 2 0 C11.82754894 21.65796008 21.63066636 43.32530073 31.25390625 65.07495117 C34.50080917 72.40832083 37.77496077 79.72760684 41.10546875 87.0234375 C41.43605789 87.74902359 41.76664703 88.47460968 42.10725403 89.22218323 C43.67705884 92.66718898 45.25203912 96.10962099 46.8371582 99.54760742 C47.39168072 100.7620966 47.9459749 101.97669008 48.5 103.19140625 C48.9846875 104.24529541 49.469375 105.29918457 49.96875 106.38500977 C51 109 51 109 51 112 C18 112 -15 112 -49 112 C-45.62518645 101.87555934 -45.62518645 101.87555934 -44.12158203 98.58300781 C-43.78287582 97.83530121 -43.44416962 97.0875946 -43.09519958 96.31723022 C-42.73636185 95.5370755 -42.37752411 94.75692078 -42.0078125 93.953125 C-41.62565079 93.1124649 -41.24348907 92.27180481 -40.8497467 91.40567017 C-40.03424325 89.6131134 -39.21671539 87.82147642 -38.39730835 86.03070068 C-37.10490619 83.20608386 -35.81794637 80.37904471 -34.5324707 77.55126953 C-32.81340014 73.77012464 -31.0926962 69.98973122 -29.37060547 66.20996094 C-26.28850772 59.44105298 -23.23057458 52.66154316 -20.1875 45.875 C-19.68726318 44.75939697 -19.18702637 43.64379395 -18.67163086 42.49438477 C-12.35586648 28.37014997 -6.17757873 14.18508516 0 0 Z " fill="#F0E0D5" transform="translate(948,421)"/>
</svg>
